<mxfile host="app.diagrams.net" agent="Mozilla/5.0 (Windows NT 10.0; Win64; x64) AppleWebKit/537.36 (KHTML, like Gecko) Chrome/138.0.0.0 Safari/537.36" version="28.0.4">
  <diagram name="Page-1" id="2YBvvXClWsGukQMizWep">
    <mxGraphModel dx="1046" dy="851" grid="0" gridSize="10" guides="1" tooltips="1" connect="1" arrows="1" fold="1" page="0" pageScale="1" pageWidth="850" pageHeight="1100" math="0" shadow="0">
      <root>
        <mxCell id="0" />
        <mxCell id="1" parent="0" />
        <mxCell id="xOAegalKOs_C7Rpp8XQo-1" value="" style="shape=umlLifeline;perimeter=lifelinePerimeter;whiteSpace=wrap;html=1;container=1;dropTarget=0;collapsible=0;recursiveResize=0;outlineConnect=0;portConstraint=eastwest;newEdgeStyle={&quot;curved&quot;:0,&quot;rounded&quot;:0};participant=umlActor;fillColor=#f5f5f5;fontColor=#333333;strokeColor=#666666;" vertex="1" parent="1">
          <mxGeometry x="336" y="228.5" width="20" height="1762.5" as="geometry" />
        </mxCell>
        <mxCell id="xOAegalKOs_C7Rpp8XQo-2" value="Admin" style="text;html=1;align=center;verticalAlign=middle;resizable=0;points=[];autosize=1;strokeColor=none;fillColor=none;" vertex="1" parent="1">
          <mxGeometry x="323" y="202.5" width="52" height="26" as="geometry" />
        </mxCell>
        <mxCell id="xOAegalKOs_C7Rpp8XQo-3" value="&amp;nbsp;Ul JS" style="shape=umlLifeline;perimeter=lifelinePerimeter;whiteSpace=wrap;html=1;container=1;dropTarget=0;collapsible=0;recursiveResize=0;outlineConnect=0;portConstraint=eastwest;newEdgeStyle={&quot;curved&quot;:0,&quot;rounded&quot;:0};fillColor=#f5f5f5;fontColor=#333333;strokeColor=#666666;" vertex="1" parent="1">
          <mxGeometry x="620" y="195" width="100" height="1783" as="geometry" />
        </mxCell>
        <mxCell id="xOAegalKOs_C7Rpp8XQo-4" value="" style="html=1;points=[[0,0,0,0,5],[0,1,0,0,-5],[1,0,0,0,5],[1,1,0,0,-5]];perimeter=orthogonalPerimeter;outlineConnect=0;targetShapes=umlLifeline;portConstraint=eastwest;newEdgeStyle={&quot;curved&quot;:0,&quot;rounded&quot;:0};" vertex="1" parent="xOAegalKOs_C7Rpp8XQo-3">
          <mxGeometry x="45" y="112" width="10" height="1671" as="geometry" />
        </mxCell>
        <mxCell id="xOAegalKOs_C7Rpp8XQo-5" value="API Backend" style="shape=umlLifeline;perimeter=lifelinePerimeter;whiteSpace=wrap;html=1;container=1;dropTarget=0;collapsible=0;recursiveResize=0;outlineConnect=0;portConstraint=eastwest;newEdgeStyle={&quot;curved&quot;:0,&quot;rounded&quot;:0};fillColor=#f5f5f5;fontColor=#333333;strokeColor=#666666;" vertex="1" parent="1">
          <mxGeometry x="864" y="210.5" width="100" height="1760" as="geometry" />
        </mxCell>
        <mxCell id="xOAegalKOs_C7Rpp8XQo-6" value="" style="html=1;points=[[0,0,0,0,5],[0,1,0,0,-5],[1,0,0,0,5],[1,1,0,0,-5]];perimeter=orthogonalPerimeter;outlineConnect=0;targetShapes=umlLifeline;portConstraint=eastwest;newEdgeStyle={&quot;curved&quot;:0,&quot;rounded&quot;:0};" vertex="1" parent="xOAegalKOs_C7Rpp8XQo-5">
          <mxGeometry x="45" y="100" width="11" height="1660" as="geometry" />
        </mxCell>
        <mxCell id="xOAegalKOs_C7Rpp8XQo-7" value="BD" style="shape=umlLifeline;perimeter=lifelinePerimeter;whiteSpace=wrap;html=1;container=1;dropTarget=0;collapsible=0;recursiveResize=0;outlineConnect=0;portConstraint=eastwest;newEdgeStyle={&quot;curved&quot;:0,&quot;rounded&quot;:0};fillColor=#f5f5f5;fontColor=#333333;strokeColor=#666666;" vertex="1" parent="1">
          <mxGeometry x="1096" y="212.5" width="100" height="1762.5" as="geometry" />
        </mxCell>
        <mxCell id="xOAegalKOs_C7Rpp8XQo-8" value="" style="html=1;points=[[0,0,0,0,5],[0,1,0,0,-5],[1,0,0,0,5],[1,1,0,0,-5]];perimeter=orthogonalPerimeter;outlineConnect=0;targetShapes=umlLifeline;portConstraint=eastwest;newEdgeStyle={&quot;curved&quot;:0,&quot;rounded&quot;:0};" vertex="1" parent="xOAegalKOs_C7Rpp8XQo-7">
          <mxGeometry x="45" y="215" width="10" height="1401" as="geometry" />
        </mxCell>
        <mxCell id="xOAegalKOs_C7Rpp8XQo-9" value="Service contraintes" style="shape=umlLifeline;perimeter=lifelinePerimeter;whiteSpace=wrap;html=1;container=1;dropTarget=0;collapsible=0;recursiveResize=0;outlineConnect=0;portConstraint=eastwest;newEdgeStyle={&quot;curved&quot;:0,&quot;rounded&quot;:0};fillColor=#f5f5f5;fontColor=#333333;strokeColor=#666666;" vertex="1" parent="1">
          <mxGeometry x="1276" y="208" width="100" height="800" as="geometry" />
        </mxCell>
        <mxCell id="xOAegalKOs_C7Rpp8XQo-10" value="" style="endArrow=classic;html=1;rounded=0;exitX=0.007;exitY=1.045;exitDx=0;exitDy=0;exitPerimeter=0;" edge="1" parent="1" source="xOAegalKOs_C7Rpp8XQo-11" target="xOAegalKOs_C7Rpp8XQo-4">
          <mxGeometry width="50" height="50" relative="1" as="geometry">
            <mxPoint x="386.66666666666674" y="356.5" as="sourcePoint" />
            <mxPoint x="632" y="356.5" as="targetPoint" />
          </mxGeometry>
        </mxCell>
        <mxCell id="xOAegalKOs_C7Rpp8XQo-11" value="&lt;div style=&quot;background-color: rgb(255, 255, 254); line-height: 19px; white-space-collapse: preserve;&quot;&gt;&lt;font face=&quot;Recursive Variable, arial, sans-serif&quot; style=&quot;color: rgb(0, 0, 0); font-size: 12px;&quot;&gt;Choisir une action(modifier ou supprimer un type de prêt)&lt;/font&gt;&lt;/div&gt;" style="text;html=1;align=center;verticalAlign=middle;resizable=0;points=[];autosize=1;strokeColor=none;fillColor=none;" vertex="1" parent="1">
          <mxGeometry x="344" y="323" width="321" height="31" as="geometry" />
        </mxCell>
        <mxCell id="xOAegalKOs_C7Rpp8XQo-14" value="[Action=Modifier]" style="text;html=1;align=center;verticalAlign=middle;resizable=0;points=[];autosize=1;strokeColor=none;fillColor=none;" vertex="1" parent="1">
          <mxGeometry x="750" y="364" width="108" height="26" as="geometry" />
        </mxCell>
        <mxCell id="xOAegalKOs_C7Rpp8XQo-15" value="" style="endArrow=classic;html=1;rounded=0;" edge="1" parent="1" target="xOAegalKOs_C7Rpp8XQo-6">
          <mxGeometry width="50" height="50" relative="1" as="geometry">
            <mxPoint x="676.5" y="419.5" as="sourcePoint" />
            <mxPoint x="895.5" y="419" as="targetPoint" />
          </mxGeometry>
        </mxCell>
        <mxCell id="xOAegalKOs_C7Rpp8XQo-16" value="&lt;span style=&quot;color: rgb(40, 37, 61); font-family: &amp;quot;Recursive Variable&amp;quot;, arial, sans-serif;&quot;&gt;&lt;font style=&quot;font-size: 12px;&quot;&gt;envoie les données modifiée&lt;/font&gt;&lt;/span&gt;" style="edgeLabel;html=1;align=center;verticalAlign=middle;resizable=0;points=[];" vertex="1" connectable="0" parent="xOAegalKOs_C7Rpp8XQo-15">
          <mxGeometry x="-0.0459" y="12" relative="1" as="geometry">
            <mxPoint x="3" y="-1" as="offset" />
          </mxGeometry>
        </mxCell>
        <mxCell id="xOAegalKOs_C7Rpp8XQo-17" value="&lt;span style=&quot;font-size: 12px;&quot;&gt;Erreur prêt non trouvé&lt;/span&gt;" style="html=1;verticalAlign=bottom;endArrow=open;dashed=1;endSize=8;curved=0;rounded=0;" edge="1" parent="1">
          <mxGeometry x="-0.0386" y="-2" relative="1" as="geometry">
            <mxPoint x="907" y="496" as="sourcePoint" />
            <mxPoint x="674" y="496" as="targetPoint" />
            <mxPoint as="offset" />
          </mxGeometry>
        </mxCell>
        <mxCell id="xOAegalKOs_C7Rpp8XQo-18" value="&lt;span style=&quot;font-size: 12px;&quot;&gt;Affiche message d&#39;erreur&lt;/span&gt;" style="html=1;verticalAlign=bottom;endArrow=open;dashed=1;endSize=8;curved=0;rounded=0;" edge="1" parent="1" target="xOAegalKOs_C7Rpp8XQo-1">
          <mxGeometry x="-0.001" relative="1" as="geometry">
            <mxPoint x="665" y="517" as="sourcePoint" />
            <mxPoint x="423" y="517" as="targetPoint" />
            <mxPoint as="offset" />
          </mxGeometry>
        </mxCell>
        <mxCell id="xOAegalKOs_C7Rpp8XQo-19" value="[Prêt inexistant]" style="text;html=1;align=center;verticalAlign=middle;resizable=0;points=[];autosize=1;strokeColor=none;fillColor=none;" vertex="1" parent="1">
          <mxGeometry x="737" y="446" width="101" height="26" as="geometry" />
        </mxCell>
        <mxCell id="xOAegalKOs_C7Rpp8XQo-20" value="&lt;span style=&quot;font-size: 12px;&quot;&gt;Affiche message d&#39;erreur&lt;/span&gt;" style="html=1;verticalAlign=bottom;endArrow=open;dashed=1;endSize=8;curved=0;rounded=0;" edge="1" parent="1" target="xOAegalKOs_C7Rpp8XQo-1">
          <mxGeometry x="-0.001" relative="1" as="geometry">
            <mxPoint x="662" y="686" as="sourcePoint" />
            <mxPoint x="420" y="686" as="targetPoint" />
            <mxPoint as="offset" />
          </mxGeometry>
        </mxCell>
        <mxCell id="xOAegalKOs_C7Rpp8XQo-21" value="[Prêt trouvé]" style="text;html=1;align=center;verticalAlign=middle;resizable=0;points=[];autosize=1;strokeColor=none;fillColor=none;" vertex="1" parent="1">
          <mxGeometry x="740" y="531" width="83" height="26" as="geometry" />
        </mxCell>
        <mxCell id="xOAegalKOs_C7Rpp8XQo-22" value="" style="endArrow=classic;html=1;rounded=0;" edge="1" parent="1">
          <mxGeometry width="50" height="50" relative="1" as="geometry">
            <mxPoint x="920" y="433" as="sourcePoint" />
            <mxPoint x="1141" y="433" as="targetPoint" />
          </mxGeometry>
        </mxCell>
        <mxCell id="xOAegalKOs_C7Rpp8XQo-23" value="&lt;span style=&quot;color: rgb(40, 37, 61); font-family: &amp;quot;Recursive Variable&amp;quot;, arial, sans-serif;&quot;&gt;&lt;font style=&quot;font-size: 12px;&quot;&gt;Vérifier existence du prêt&lt;/font&gt;&lt;/span&gt;" style="edgeLabel;html=1;align=center;verticalAlign=middle;resizable=0;points=[];" vertex="1" connectable="0" parent="xOAegalKOs_C7Rpp8XQo-22">
          <mxGeometry x="0.696" y="3" relative="1" as="geometry">
            <mxPoint x="-86" y="-9" as="offset" />
          </mxGeometry>
        </mxCell>
        <mxCell id="xOAegalKOs_C7Rpp8XQo-24" style="edgeStyle=orthogonalEdgeStyle;rounded=0;orthogonalLoop=1;jettySize=auto;html=1;curved=0;" edge="1" parent="1">
          <mxGeometry relative="1" as="geometry">
            <mxPoint x="921" y="838" as="sourcePoint" />
            <Array as="points">
              <mxPoint x="950" y="838" />
              <mxPoint x="950" y="868" />
            </Array>
            <mxPoint x="921" y="868" as="targetPoint" />
          </mxGeometry>
        </mxCell>
        <mxCell id="xOAegalKOs_C7Rpp8XQo-28" value="" style="html=1;points=[[0,0,0,0,5],[0,1,0,0,-5],[1,0,0,0,5],[1,1,0,0,-5]];perimeter=orthogonalPerimeter;outlineConnect=0;targetShapes=umlLifeline;portConstraint=eastwest;newEdgeStyle={&quot;curved&quot;:0,&quot;rounded&quot;:0};" vertex="1" parent="1">
          <mxGeometry x="1321" y="948" width="10" height="1030" as="geometry" />
        </mxCell>
        <mxCell id="xOAegalKOs_C7Rpp8XQo-29" value="alt" style="shape=umlFrame;whiteSpace=wrap;html=1;pointerEvents=0;fillColor=#ffe6cc;strokeColor=#d79b00;" vertex="1" parent="1">
          <mxGeometry x="198" y="369" width="1203" height="1641" as="geometry" />
        </mxCell>
        <mxCell id="xOAegalKOs_C7Rpp8XQo-33" value="" style="endArrow=none;dashed=1;html=1;dashPattern=1 3;strokeWidth=2;rounded=0;fillColor=#ffe6cc;strokeColor=#d79b00;entryX=0.999;entryY=0.352;entryDx=0;entryDy=0;entryPerimeter=0;" edge="1" parent="1">
          <mxGeometry width="50" height="50" relative="1" as="geometry">
            <mxPoint x="348" y="535" as="sourcePoint" />
            <mxPoint x="1325.964" y="533.0039999999999" as="targetPoint" />
            <Array as="points" />
          </mxGeometry>
        </mxCell>
        <mxCell id="xOAegalKOs_C7Rpp8XQo-34" value="" style="endArrow=classic;html=1;rounded=0;" edge="1" parent="1">
          <mxGeometry width="50" height="50" relative="1" as="geometry">
            <mxPoint x="922" y="604" as="sourcePoint" />
            <mxPoint x="1140" y="604" as="targetPoint" />
          </mxGeometry>
        </mxCell>
        <mxCell id="xOAegalKOs_C7Rpp8XQo-35" value="&lt;span style=&quot;color: rgb(40, 37, 61); font-family: &amp;quot;Recursive Variable&amp;quot;, arial, sans-serif;&quot;&gt;&lt;font style=&quot;font-size: 12px;&quot;&gt;Vérifier l&#39;unicité du libellé&lt;/font&gt;&lt;/span&gt;" style="edgeLabel;html=1;align=center;verticalAlign=middle;resizable=0;points=[];" vertex="1" connectable="0" parent="xOAegalKOs_C7Rpp8XQo-34">
          <mxGeometry x="0.696" y="3" relative="1" as="geometry">
            <mxPoint x="-86" y="-9" as="offset" />
          </mxGeometry>
        </mxCell>
        <mxCell id="xOAegalKOs_C7Rpp8XQo-36" value="Mettre a jour le libellé" style="text;html=1;align=center;verticalAlign=middle;resizable=0;points=[];autosize=1;strokeColor=none;fillColor=none;" vertex="1" parent="1">
          <mxGeometry x="834" y="810" width="132" height="26" as="geometry" />
        </mxCell>
        <mxCell id="xOAegalKOs_C7Rpp8XQo-37" value="alt" style="shape=umlFrame;whiteSpace=wrap;html=1;pointerEvents=0;fillColor=#ffe6cc;strokeColor=#d79b00;" vertex="1" parent="1">
          <mxGeometry x="205" y="446" width="1189" height="801" as="geometry" />
        </mxCell>
        <mxCell id="xOAegalKOs_C7Rpp8XQo-38" value="alt" style="shape=umlFrame;whiteSpace=wrap;html=1;pointerEvents=0;fillColor=#ffe6cc;strokeColor=#d79b00;" vertex="1" parent="1">
          <mxGeometry x="210" y="552" width="1178" height="355" as="geometry" />
        </mxCell>
        <mxCell id="xOAegalKOs_C7Rpp8XQo-39" value="[Libellé modifié]" style="text;html=1;align=center;verticalAlign=middle;resizable=0;points=[];autosize=1;strokeColor=none;fillColor=none;" vertex="1" parent="1">
          <mxGeometry x="733" y="549" width="101" height="26" as="geometry" />
        </mxCell>
        <mxCell id="xOAegalKOs_C7Rpp8XQo-40" value="alt" style="shape=umlFrame;whiteSpace=wrap;html=1;pointerEvents=0;fillColor=#ffe6cc;strokeColor=#d79b00;" vertex="1" parent="1">
          <mxGeometry x="215" y="617" width="755" height="269" as="geometry" />
        </mxCell>
        <mxCell id="xOAegalKOs_C7Rpp8XQo-41" value="[Libellé vide]" style="text;html=1;align=center;verticalAlign=middle;resizable=0;points=[];autosize=1;strokeColor=none;fillColor=none;" vertex="1" parent="1">
          <mxGeometry x="575" y="617" width="85" height="26" as="geometry" />
        </mxCell>
        <mxCell id="xOAegalKOs_C7Rpp8XQo-43" value="&lt;span style=&quot;font-size: 12px;&quot;&gt;Erreur libellé requis&lt;/span&gt;" style="html=1;verticalAlign=bottom;endArrow=open;dashed=1;endSize=8;curved=0;rounded=0;" edge="1" parent="1">
          <mxGeometry x="-0.0386" y="-2" relative="1" as="geometry">
            <mxPoint x="910" y="669" as="sourcePoint" />
            <mxPoint x="677" y="669" as="targetPoint" />
            <mxPoint as="offset" />
          </mxGeometry>
        </mxCell>
        <mxCell id="xOAegalKOs_C7Rpp8XQo-44" value="" style="endArrow=none;dashed=1;html=1;dashPattern=1 3;strokeWidth=2;rounded=0;fillColor=#ffe6cc;strokeColor=#d79b00;" edge="1" parent="1">
          <mxGeometry width="50" height="50" relative="1" as="geometry">
            <mxPoint x="215" y="723.9960000000001" as="sourcePoint" />
            <mxPoint x="968" y="722" as="targetPoint" />
            <Array as="points" />
          </mxGeometry>
        </mxCell>
        <mxCell id="xOAegalKOs_C7Rpp8XQo-45" value="[Libellé déjà utilisé]" style="text;html=1;align=center;verticalAlign=middle;resizable=0;points=[];autosize=1;strokeColor=none;fillColor=none;" vertex="1" parent="1">
          <mxGeometry x="561" y="718" width="119" height="26" as="geometry" />
        </mxCell>
        <mxCell id="xOAegalKOs_C7Rpp8XQo-46" value="&lt;span style=&quot;font-size: 12px;&quot;&gt;Erreur déjà utilisé&lt;/span&gt;" style="html=1;verticalAlign=bottom;endArrow=open;dashed=1;endSize=8;curved=0;rounded=0;" edge="1" parent="1">
          <mxGeometry x="-0.0386" y="-2" relative="1" as="geometry">
            <mxPoint x="908" y="750" as="sourcePoint" />
            <mxPoint x="675" y="750" as="targetPoint" />
            <mxPoint as="offset" />
          </mxGeometry>
        </mxCell>
        <mxCell id="xOAegalKOs_C7Rpp8XQo-47" value="&lt;span style=&quot;font-size: 12px;&quot;&gt;Affiche message d&#39;erreur&lt;/span&gt;" style="html=1;verticalAlign=bottom;endArrow=open;dashed=1;endSize=8;curved=0;rounded=0;" edge="1" parent="1">
          <mxGeometry x="-0.001" relative="1" as="geometry">
            <mxPoint x="662.5" y="786" as="sourcePoint" />
            <mxPoint x="346.5" y="786" as="targetPoint" />
            <mxPoint as="offset" />
          </mxGeometry>
        </mxCell>
        <mxCell id="xOAegalKOs_C7Rpp8XQo-48" value="" style="endArrow=none;dashed=1;html=1;dashPattern=1 3;strokeWidth=2;rounded=0;fillColor=#ffe6cc;strokeColor=#d79b00;" edge="1" parent="1">
          <mxGeometry width="50" height="50" relative="1" as="geometry">
            <mxPoint x="217" y="809.9960000000001" as="sourcePoint" />
            <mxPoint x="970" y="808" as="targetPoint" />
            <Array as="points" />
          </mxGeometry>
        </mxCell>
        <mxCell id="xOAegalKOs_C7Rpp8XQo-50" value="[Libellé valide]" style="text;html=1;align=center;verticalAlign=middle;resizable=0;points=[];autosize=1;strokeColor=none;fillColor=none;" vertex="1" parent="1">
          <mxGeometry x="559" y="810" width="94" height="26" as="geometry" />
        </mxCell>
        <mxCell id="xOAegalKOs_C7Rpp8XQo-51" value="alt" style="shape=umlFrame;whiteSpace=wrap;html=1;pointerEvents=0;fillColor=#ffe6cc;strokeColor=#d79b00;" vertex="1" parent="1">
          <mxGeometry x="211" y="914" width="1177" height="239" as="geometry" />
        </mxCell>
        <mxCell id="xOAegalKOs_C7Rpp8XQo-52" value="[Contraintes modifiées]" style="text;html=1;align=center;verticalAlign=middle;resizable=0;points=[];autosize=1;strokeColor=none;fillColor=none;" vertex="1" parent="1">
          <mxGeometry x="709" y="910" width="141" height="26" as="geometry" />
        </mxCell>
        <mxCell id="xOAegalKOs_C7Rpp8XQo-53" value="" style="endArrow=classic;html=1;rounded=0;" edge="1" parent="1" target="xOAegalKOs_C7Rpp8XQo-28">
          <mxGeometry width="50" height="50" relative="1" as="geometry">
            <mxPoint x="921" y="952" as="sourcePoint" />
            <mxPoint x="1139" y="952" as="targetPoint" />
          </mxGeometry>
        </mxCell>
        <mxCell id="xOAegalKOs_C7Rpp8XQo-54" value="&lt;span style=&quot;color: rgb(40, 37, 61); font-family: &amp;quot;Recursive Variable&amp;quot;, arial, sans-serif;&quot;&gt;&lt;font style=&quot;font-size: 12px;&quot;&gt;Mettre a jour les contraintes&lt;/font&gt;&lt;/span&gt;" style="edgeLabel;html=1;align=center;verticalAlign=middle;resizable=0;points=[];" vertex="1" connectable="0" parent="xOAegalKOs_C7Rpp8XQo-53">
          <mxGeometry x="0.696" y="3" relative="1" as="geometry">
            <mxPoint x="-86" y="-9" as="offset" />
          </mxGeometry>
        </mxCell>
        <mxCell id="xOAegalKOs_C7Rpp8XQo-55" value="alt" style="shape=umlFrame;whiteSpace=wrap;html=1;pointerEvents=0;fillColor=#ffe6cc;strokeColor=#d79b00;" vertex="1" parent="1">
          <mxGeometry x="217" y="973" width="1163" height="170" as="geometry" />
        </mxCell>
        <mxCell id="xOAegalKOs_C7Rpp8XQo-56" value="[Erreur contraintes]" style="text;html=1;align=center;verticalAlign=middle;resizable=0;points=[];autosize=1;strokeColor=none;fillColor=none;" vertex="1" parent="1">
          <mxGeometry x="720" y="968" width="120" height="26" as="geometry" />
        </mxCell>
        <mxCell id="xOAegalKOs_C7Rpp8XQo-57" value="&lt;span style=&quot;font-size: 12px;&quot;&gt;Erreur problème contraintes&lt;/span&gt;" style="html=1;verticalAlign=bottom;endArrow=open;dashed=1;endSize=8;curved=0;rounded=0;" edge="1" parent="1" source="xOAegalKOs_C7Rpp8XQo-28">
          <mxGeometry x="-0.1791" y="-7" relative="1" as="geometry">
            <mxPoint x="1152" y="1008" as="sourcePoint" />
            <mxPoint x="919" y="1008" as="targetPoint" />
            <mxPoint as="offset" />
          </mxGeometry>
        </mxCell>
        <mxCell id="xOAegalKOs_C7Rpp8XQo-58" value="&lt;span style=&quot;font-size: 12px;&quot;&gt;Afficher erreur&lt;/span&gt;" style="html=1;verticalAlign=bottom;endArrow=open;dashed=1;endSize=8;curved=0;rounded=0;" edge="1" parent="1">
          <mxGeometry x="-0.0386" y="-2" relative="1" as="geometry">
            <mxPoint x="909" y="1026" as="sourcePoint" />
            <mxPoint x="676" y="1026" as="targetPoint" />
            <mxPoint as="offset" />
          </mxGeometry>
        </mxCell>
        <mxCell id="xOAegalKOs_C7Rpp8XQo-59" value="&lt;span style=&quot;font-size: 12px;&quot;&gt;Affiche message d&#39;erreur&lt;/span&gt;" style="html=1;verticalAlign=bottom;endArrow=open;dashed=1;endSize=8;curved=0;rounded=0;" edge="1" parent="1">
          <mxGeometry x="-0.001" relative="1" as="geometry">
            <mxPoint x="662.5" y="1043" as="sourcePoint" />
            <mxPoint x="346.5" y="1043" as="targetPoint" />
            <mxPoint as="offset" />
          </mxGeometry>
        </mxCell>
        <mxCell id="xOAegalKOs_C7Rpp8XQo-60" value="" style="endArrow=none;dashed=1;html=1;dashPattern=1 3;strokeWidth=2;rounded=0;fillColor=#ffe6cc;strokeColor=#d79b00;entryX=0.998;entryY=0.616;entryDx=0;entryDy=0;entryPerimeter=0;" edge="1" parent="1" target="xOAegalKOs_C7Rpp8XQo-55">
          <mxGeometry width="50" height="50" relative="1" as="geometry">
            <mxPoint x="217" y="1078.996" as="sourcePoint" />
            <mxPoint x="970" y="1077" as="targetPoint" />
            <Array as="points" />
          </mxGeometry>
        </mxCell>
        <mxCell id="xOAegalKOs_C7Rpp8XQo-61" value="[contraintes mises a jour]" style="text;html=1;align=center;verticalAlign=middle;resizable=0;points=[];autosize=1;strokeColor=none;fillColor=none;" vertex="1" parent="1">
          <mxGeometry x="715" y="1076" width="151" height="26" as="geometry" />
        </mxCell>
        <mxCell id="xOAegalKOs_C7Rpp8XQo-62" value="&lt;span style=&quot;font-size: 12px;&quot;&gt;OK&lt;/span&gt;" style="html=1;verticalAlign=bottom;endArrow=open;dashed=1;endSize=8;curved=0;rounded=0;" edge="1" parent="1">
          <mxGeometry x="-0.1791" y="-7" relative="1" as="geometry">
            <mxPoint x="1321" y="1107" as="sourcePoint" />
            <mxPoint x="919" y="1107" as="targetPoint" />
            <mxPoint as="offset" />
          </mxGeometry>
        </mxCell>
        <mxCell id="xOAegalKOs_C7Rpp8XQo-63" value="" style="endArrow=classic;html=1;rounded=0;" edge="1" parent="1">
          <mxGeometry width="50" height="50" relative="1" as="geometry">
            <mxPoint x="925" y="1179" as="sourcePoint" />
            <mxPoint x="1143" y="1179" as="targetPoint" />
          </mxGeometry>
        </mxCell>
        <mxCell id="xOAegalKOs_C7Rpp8XQo-64" value="&lt;span style=&quot;color: rgb(40, 37, 61); font-family: &amp;quot;Recursive Variable&amp;quot;, arial, sans-serif;&quot;&gt;&lt;font style=&quot;font-size: 12px;&quot;&gt;Enregistrer les modifications&lt;/font&gt;&lt;/span&gt;" style="edgeLabel;html=1;align=center;verticalAlign=middle;resizable=0;points=[];" vertex="1" connectable="0" parent="xOAegalKOs_C7Rpp8XQo-63">
          <mxGeometry x="0.696" y="3" relative="1" as="geometry">
            <mxPoint x="-86" y="-9" as="offset" />
          </mxGeometry>
        </mxCell>
        <mxCell id="xOAegalKOs_C7Rpp8XQo-66" value="&lt;span style=&quot;font-size: 12px;&quot;&gt;Retourner&amp;nbsp; PretDTO mis a jour&lt;/span&gt;" style="html=1;verticalAlign=bottom;endArrow=open;dashed=1;endSize=8;curved=0;rounded=0;" edge="1" parent="1">
          <mxGeometry x="-0.0386" y="-2" relative="1" as="geometry">
            <mxPoint x="910" y="1203" as="sourcePoint" />
            <mxPoint x="677" y="1203" as="targetPoint" />
            <mxPoint as="offset" />
          </mxGeometry>
        </mxCell>
        <mxCell id="xOAegalKOs_C7Rpp8XQo-67" value="&lt;span style=&quot;font-size: 12px;&quot;&gt;Affiche message &quot;type de prêt mis a jour&quot;&lt;/span&gt;" style="html=1;verticalAlign=bottom;endArrow=open;dashed=1;endSize=8;curved=0;rounded=0;" edge="1" parent="1">
          <mxGeometry x="-0.001" relative="1" as="geometry">
            <mxPoint x="665" y="1227" as="sourcePoint" />
            <mxPoint x="349" y="1227" as="targetPoint" />
            <mxPoint as="offset" />
          </mxGeometry>
        </mxCell>
        <mxCell id="xOAegalKOs_C7Rpp8XQo-68" value="" style="endArrow=none;dashed=1;html=1;dashPattern=1 3;strokeWidth=2;rounded=0;fillColor=#ffe6cc;strokeColor=#d79b00;" edge="1" parent="1">
          <mxGeometry width="50" height="50" relative="1" as="geometry">
            <mxPoint x="199" y="1264.996" as="sourcePoint" />
            <mxPoint x="1403" y="1265" as="targetPoint" />
            <Array as="points" />
          </mxGeometry>
        </mxCell>
        <mxCell id="xOAegalKOs_C7Rpp8XQo-69" value="[Action=Supprimer]" style="text;html=1;align=center;verticalAlign=middle;resizable=0;points=[];autosize=1;strokeColor=none;fillColor=none;" vertex="1" parent="1">
          <mxGeometry x="742" y="1260" width="120" height="26" as="geometry" />
        </mxCell>
        <mxCell id="xOAegalKOs_C7Rpp8XQo-70" value="" style="endArrow=classic;html=1;rounded=0;" edge="1" parent="1" target="xOAegalKOs_C7Rpp8XQo-6">
          <mxGeometry width="50" height="50" relative="1" as="geometry">
            <mxPoint x="674.5" y="1313" as="sourcePoint" />
            <mxPoint x="892.5" y="1313" as="targetPoint" />
          </mxGeometry>
        </mxCell>
        <mxCell id="xOAegalKOs_C7Rpp8XQo-71" value="&lt;span style=&quot;color: rgb(40, 37, 61); font-family: &amp;quot;Recursive Variable&amp;quot;, arial, sans-serif;&quot;&gt;&lt;font style=&quot;font-size: 12px;&quot;&gt;Envoyer code de prêt a supprimer&lt;/font&gt;&lt;/span&gt;" style="edgeLabel;html=1;align=center;verticalAlign=middle;resizable=0;points=[];" vertex="1" connectable="0" parent="xOAegalKOs_C7Rpp8XQo-70">
          <mxGeometry x="0.696" y="3" relative="1" as="geometry">
            <mxPoint x="-86" y="-9" as="offset" />
          </mxGeometry>
        </mxCell>
        <mxCell id="xOAegalKOs_C7Rpp8XQo-72" value="" style="endArrow=classic;html=1;rounded=0;" edge="1" parent="1">
          <mxGeometry width="50" height="50" relative="1" as="geometry">
            <mxPoint x="924" y="1336" as="sourcePoint" />
            <mxPoint x="1142" y="1336" as="targetPoint" />
          </mxGeometry>
        </mxCell>
        <mxCell id="xOAegalKOs_C7Rpp8XQo-73" value="&lt;span style=&quot;color: rgb(40, 37, 61); font-family: &amp;quot;Recursive Variable&amp;quot;, arial, sans-serif;&quot;&gt;&lt;font style=&quot;font-size: 12px;&quot;&gt;Vérifier existence du prêt&amp;nbsp;&lt;/font&gt;&lt;/span&gt;" style="edgeLabel;html=1;align=center;verticalAlign=middle;resizable=0;points=[];" vertex="1" connectable="0" parent="xOAegalKOs_C7Rpp8XQo-72">
          <mxGeometry x="0.696" y="3" relative="1" as="geometry">
            <mxPoint x="-86" y="-9" as="offset" />
          </mxGeometry>
        </mxCell>
        <mxCell id="xOAegalKOs_C7Rpp8XQo-74" value="alt" style="shape=umlFrame;whiteSpace=wrap;html=1;pointerEvents=0;fillColor=#ffe6cc;strokeColor=#d79b00;" vertex="1" parent="1">
          <mxGeometry x="209" y="1351" width="1179" height="652" as="geometry" />
        </mxCell>
        <mxCell id="xOAegalKOs_C7Rpp8XQo-75" value="[Prêt inexistant]" style="text;html=1;align=center;verticalAlign=middle;resizable=0;points=[];autosize=1;strokeColor=none;fillColor=none;" vertex="1" parent="1">
          <mxGeometry x="753.5" y="1351" width="101" height="26" as="geometry" />
        </mxCell>
        <mxCell id="xOAegalKOs_C7Rpp8XQo-76" value="&lt;span style=&quot;font-size: 12px;&quot;&gt;Erreur &quot;prêt n&#39;existe pas&quot;&lt;/span&gt;" style="html=1;verticalAlign=bottom;endArrow=open;dashed=1;endSize=8;curved=0;rounded=0;" edge="1" parent="1">
          <mxGeometry x="-0.0386" y="-2" relative="1" as="geometry">
            <mxPoint x="907" y="1403" as="sourcePoint" />
            <mxPoint x="674" y="1403" as="targetPoint" />
            <mxPoint as="offset" />
          </mxGeometry>
        </mxCell>
        <mxCell id="xOAegalKOs_C7Rpp8XQo-77" value="&lt;span style=&quot;font-size: 12px;&quot;&gt;Affiche message d&#39;erreur&lt;/span&gt;" style="html=1;verticalAlign=bottom;endArrow=open;dashed=1;endSize=8;curved=0;rounded=0;" edge="1" parent="1">
          <mxGeometry x="-0.001" relative="1" as="geometry">
            <mxPoint x="662.5" y="1428" as="sourcePoint" />
            <mxPoint x="346.5" y="1428" as="targetPoint" />
            <mxPoint as="offset" />
          </mxGeometry>
        </mxCell>
        <mxCell id="xOAegalKOs_C7Rpp8XQo-78" value="" style="endArrow=none;dashed=1;html=1;dashPattern=1 3;strokeWidth=2;rounded=0;fillColor=#ffe6cc;strokeColor=#d79b00;" edge="1" parent="1">
          <mxGeometry width="50" height="50" relative="1" as="geometry">
            <mxPoint x="209" y="1458" as="sourcePoint" />
            <mxPoint x="1389" y="1460" as="targetPoint" />
            <Array as="points" />
          </mxGeometry>
        </mxCell>
        <mxCell id="xOAegalKOs_C7Rpp8XQo-79" value="[Prêt trouvé]" style="text;html=1;align=center;verticalAlign=middle;resizable=0;points=[];autosize=1;strokeColor=none;fillColor=none;" vertex="1" parent="1">
          <mxGeometry x="766" y="1455" width="83" height="26" as="geometry" />
        </mxCell>
        <mxCell id="xOAegalKOs_C7Rpp8XQo-80" value="" style="endArrow=classic;html=1;rounded=0;" edge="1" parent="1">
          <mxGeometry width="50" height="50" relative="1" as="geometry">
            <mxPoint x="926" y="1499" as="sourcePoint" />
            <mxPoint x="1144" y="1499" as="targetPoint" />
          </mxGeometry>
        </mxCell>
        <mxCell id="xOAegalKOs_C7Rpp8XQo-81" value="&lt;span style=&quot;color: rgb(40, 37, 61); font-family: &amp;quot;Recursive Variable&amp;quot;, arial, sans-serif;&quot;&gt;&lt;font style=&quot;font-size: 12px;&quot;&gt;Vérifier existence du prêt&amp;nbsp;&lt;/font&gt;&lt;/span&gt;" style="edgeLabel;html=1;align=center;verticalAlign=middle;resizable=0;points=[];" vertex="1" connectable="0" parent="xOAegalKOs_C7Rpp8XQo-80">
          <mxGeometry x="0.696" y="3" relative="1" as="geometry">
            <mxPoint x="-86" y="-9" as="offset" />
          </mxGeometry>
        </mxCell>
        <mxCell id="xOAegalKOs_C7Rpp8XQo-82" value="alt" style="shape=umlFrame;whiteSpace=wrap;html=1;pointerEvents=0;fillColor=#ffe6cc;strokeColor=#d79b00;" vertex="1" parent="1">
          <mxGeometry x="218" y="1522" width="1160" height="473" as="geometry" />
        </mxCell>
        <mxCell id="xOAegalKOs_C7Rpp8XQo-83" value="[Prêt déjà utilisé]" style="text;html=1;align=center;verticalAlign=middle;resizable=0;points=[];autosize=1;strokeColor=none;fillColor=none;" vertex="1" parent="1">
          <mxGeometry x="754" y="1522" width="107" height="26" as="geometry" />
        </mxCell>
        <mxCell id="xOAegalKOs_C7Rpp8XQo-84" value="&lt;span style=&quot;font-size: 12px;&quot;&gt;Erreur &quot;prêt déjà utilisé&quot;&quot;&lt;/span&gt;" style="html=1;verticalAlign=bottom;endArrow=open;dashed=1;endSize=8;curved=0;rounded=0;" edge="1" parent="1">
          <mxGeometry x="-0.0386" y="-2" relative="1" as="geometry">
            <mxPoint x="907" y="1572" as="sourcePoint" />
            <mxPoint x="674" y="1572" as="targetPoint" />
            <mxPoint as="offset" />
          </mxGeometry>
        </mxCell>
        <mxCell id="xOAegalKOs_C7Rpp8XQo-85" value="" style="endArrow=none;dashed=1;html=1;dashPattern=1 3;strokeWidth=2;rounded=0;fillColor=#ffe6cc;strokeColor=#d79b00;" edge="1" parent="1">
          <mxGeometry width="50" height="50" relative="1" as="geometry">
            <mxPoint x="218" y="1600" as="sourcePoint" />
            <mxPoint x="1382" y="1600" as="targetPoint" />
            <Array as="points" />
          </mxGeometry>
        </mxCell>
        <mxCell id="xOAegalKOs_C7Rpp8XQo-86" value="[Prêt non utilisé]" style="text;html=1;align=center;verticalAlign=middle;resizable=0;points=[];autosize=1;strokeColor=none;fillColor=none;" vertex="1" parent="1">
          <mxGeometry x="749.5" y="1600" width="104" height="26" as="geometry" />
        </mxCell>
        <mxCell id="xOAegalKOs_C7Rpp8XQo-87" value="" style="endArrow=classic;html=1;rounded=0;" edge="1" parent="1">
          <mxGeometry width="50" height="50" relative="1" as="geometry">
            <mxPoint x="921" y="1638" as="sourcePoint" />
            <mxPoint x="1139" y="1638" as="targetPoint" />
          </mxGeometry>
        </mxCell>
        <mxCell id="xOAegalKOs_C7Rpp8XQo-88" value="&lt;span style=&quot;color: rgb(40, 37, 61); font-family: &amp;quot;Recursive Variable&amp;quot;, arial, sans-serif;&quot;&gt;&lt;font style=&quot;font-size: 12px;&quot;&gt;Supprimer le prêt&lt;/font&gt;&lt;/span&gt;" style="edgeLabel;html=1;align=center;verticalAlign=middle;resizable=0;points=[];" vertex="1" connectable="0" parent="xOAegalKOs_C7Rpp8XQo-87">
          <mxGeometry x="0.696" y="3" relative="1" as="geometry">
            <mxPoint x="-86" y="-9" as="offset" />
          </mxGeometry>
        </mxCell>
        <mxCell id="xOAegalKOs_C7Rpp8XQo-89" value="" style="endArrow=classic;html=1;rounded=0;" edge="1" parent="1">
          <mxGeometry width="50" height="50" relative="1" as="geometry">
            <mxPoint x="927" y="1680" as="sourcePoint" />
            <mxPoint x="1327" y="1680" as="targetPoint" />
          </mxGeometry>
        </mxCell>
        <mxCell id="xOAegalKOs_C7Rpp8XQo-90" value="&lt;span style=&quot;color: rgb(40, 37, 61); font-family: &amp;quot;Recursive Variable&amp;quot;, arial, sans-serif;&quot;&gt;&lt;font style=&quot;font-size: 12px;&quot;&gt;Supprimer contraintes associées&lt;/font&gt;&lt;/span&gt;" style="edgeLabel;html=1;align=center;verticalAlign=middle;resizable=0;points=[];" vertex="1" connectable="0" parent="xOAegalKOs_C7Rpp8XQo-89">
          <mxGeometry x="0.696" y="3" relative="1" as="geometry">
            <mxPoint x="-86" y="-9" as="offset" />
          </mxGeometry>
        </mxCell>
        <mxCell id="xOAegalKOs_C7Rpp8XQo-94" value="alt" style="shape=umlFrame;whiteSpace=wrap;html=1;pointerEvents=0;fillColor=#ffe6cc;strokeColor=#d79b00;" vertex="1" parent="1">
          <mxGeometry x="224" y="1707" width="1146" height="281" as="geometry" />
        </mxCell>
        <mxCell id="xOAegalKOs_C7Rpp8XQo-95" value="[Erreur suppression contraintes]" style="text;html=1;align=center;verticalAlign=middle;resizable=0;points=[];autosize=1;strokeColor=none;fillColor=none;" vertex="1" parent="1">
          <mxGeometry x="697" y="1710" width="188" height="26" as="geometry" />
        </mxCell>
        <mxCell id="xOAegalKOs_C7Rpp8XQo-96" value="&lt;span style=&quot;font-size: 12px;&quot;&gt;Erreur &quot;Echec suppression contraintes&quot;&lt;/span&gt;" style="html=1;verticalAlign=bottom;endArrow=open;dashed=1;endSize=8;curved=0;rounded=0;" edge="1" parent="1" source="xOAegalKOs_C7Rpp8XQo-28">
          <mxGeometry x="0.0129" y="-10" relative="1" as="geometry">
            <mxPoint x="1150" y="1747" as="sourcePoint" />
            <mxPoint x="917" y="1747" as="targetPoint" />
            <mxPoint x="1" as="offset" />
          </mxGeometry>
        </mxCell>
        <mxCell id="xOAegalKOs_C7Rpp8XQo-98" value="&lt;span style=&quot;font-size: 12px;&quot;&gt;Afficher erreur&lt;/span&gt;" style="html=1;verticalAlign=bottom;endArrow=open;dashed=1;endSize=8;curved=0;rounded=0;" edge="1" parent="1">
          <mxGeometry x="-0.0386" y="-2" relative="1" as="geometry">
            <mxPoint x="907" y="1774" as="sourcePoint" />
            <mxPoint x="674" y="1774" as="targetPoint" />
            <mxPoint as="offset" />
          </mxGeometry>
        </mxCell>
        <mxCell id="xOAegalKOs_C7Rpp8XQo-100" value="&lt;span style=&quot;font-size: 12px;&quot;&gt;Affiche message d&#39;erreur&lt;/span&gt;" style="html=1;verticalAlign=bottom;endArrow=open;dashed=1;endSize=8;curved=0;rounded=0;" edge="1" parent="1">
          <mxGeometry x="-0.001" relative="1" as="geometry">
            <mxPoint x="662.5" y="1804" as="sourcePoint" />
            <mxPoint x="346.5" y="1804" as="targetPoint" />
            <mxPoint as="offset" />
          </mxGeometry>
        </mxCell>
        <mxCell id="xOAegalKOs_C7Rpp8XQo-102" value="" style="endArrow=none;dashed=1;html=1;dashPattern=1 3;strokeWidth=2;rounded=0;fillColor=#ffe6cc;strokeColor=#d79b00;" edge="1" parent="1">
          <mxGeometry width="50" height="50" relative="1" as="geometry">
            <mxPoint x="225.5" y="1846.57" as="sourcePoint" />
            <mxPoint x="1368" y="1847" as="targetPoint" />
            <Array as="points" />
          </mxGeometry>
        </mxCell>
        <mxCell id="xOAegalKOs_C7Rpp8XQo-103" value="[contraintes supprimées]" style="text;html=1;align=center;verticalAlign=middle;resizable=0;points=[];autosize=1;strokeColor=none;fillColor=none;" vertex="1" parent="1">
          <mxGeometry x="720" y="1851" width="149" height="26" as="geometry" />
        </mxCell>
        <mxCell id="xOAegalKOs_C7Rpp8XQo-104" value="&lt;span style=&quot;font-size: 12px;&quot;&gt;OK&lt;/span&gt;" style="html=1;verticalAlign=bottom;endArrow=open;dashed=1;endSize=8;curved=0;rounded=0;" edge="1" parent="1">
          <mxGeometry x="0.0129" y="-10" relative="1" as="geometry">
            <mxPoint x="1321" y="1908" as="sourcePoint" />
            <mxPoint x="917" y="1908" as="targetPoint" />
            <mxPoint x="1" as="offset" />
          </mxGeometry>
        </mxCell>
        <mxCell id="xOAegalKOs_C7Rpp8XQo-105" value="&lt;span style=&quot;font-size: 12px;&quot;&gt;Succès suppression&lt;/span&gt;" style="html=1;verticalAlign=bottom;endArrow=open;dashed=1;endSize=8;curved=0;rounded=0;" edge="1" parent="1">
          <mxGeometry x="-0.0386" y="-2" relative="1" as="geometry">
            <mxPoint x="907.5" y="1936" as="sourcePoint" />
            <mxPoint x="674.5" y="1936" as="targetPoint" />
            <mxPoint as="offset" />
          </mxGeometry>
        </mxCell>
        <mxCell id="xOAegalKOs_C7Rpp8XQo-106" value="&lt;span style=&quot;font-size: 12px;&quot;&gt;Affiche message &quot;type de prêt supprimé&quot;&lt;/span&gt;" style="html=1;verticalAlign=bottom;endArrow=open;dashed=1;endSize=8;curved=0;rounded=0;" edge="1" parent="1">
          <mxGeometry x="-0.001" relative="1" as="geometry">
            <mxPoint x="662.5" y="1965" as="sourcePoint" />
            <mxPoint x="346.5" y="1965" as="targetPoint" />
            <mxPoint as="offset" />
          </mxGeometry>
        </mxCell>
      </root>
    </mxGraphModel>
  </diagram>
</mxfile>
